<?xml version="1.0" encoding="utf-8"?>
<!-- Generator: Adobe Illustrator 16.0.0, SVG Export Plug-In . SVG Version: 6.00 Build 0)  -->
<!DOCTYPE svg PUBLIC "-//W3C//DTD SVG 1.1//EN" "http://www.w3.org/Graphics/SVG/1.1/DTD/svg11.dtd">
<svg version="1.1" id="Layer_1" xmlns="http://www.w3.org/2000/svg" xmlns:xlink="http://www.w3.org/1999/xlink" x="0px" y="0px"
	 width="600px" height="600px" viewBox="0 0 600 600" enable-background="new 0 0 600 600" xml:space="preserve">
<path fill="#103A99" d="M570.131,600v-58.529l29.313-29.313v58.529L570.131,600z M-0.556,29.313L28.758,0h58.529L57.974,29.313
	H-0.556z"/>
<path fill="#1C44C6" d="M28.758,0h226.862l343.824,343.922v226.862L28.758,0z"/>
<text transform="matrix(0.7071 0.7071 -0.7071 0.7071 8363.9512 27771.5469)" fill="#FFFFFF" font-family="'Lato-Regular'" font-size="95.1066">POPULAR</text>
<g>
	<path fill="#FFFFFF" d="M323.2,242.252l-11.573-11.584c-1.297-1.297-2.062-2.666-2.297-4.111c-0.235-1.442-0.043-2.798,0.576-4.064
		l7.432-15.023l-24.473-24.494l-15.029,7.418c-1.12,0.529-2.438,0.698-3.956,0.506c-1.518-0.192-2.895-0.906-4.131-2.145
		l-11.662-11.672l89.334-39.426l15.284,15.297L323.2,242.252z M306.48,176.264l17.581,17.597l11.722-23.55
		c0.737-1.502,1.605-3.27,2.609-5.303c1.003-2.033,2.139-4.184,3.406-6.451c-2.27,1.325-4.421,2.503-6.454,3.533
		c-2.034,1.03-3.831,1.885-5.393,2.561L306.48,176.264z"/>
	<path fill="#FFFFFF" d="M419.043,273.717c-4.657,4.654-9.756,8.143-15.295,10.467c-5.541,2.325-11.205,3.465-16.994,3.418
		c-5.79-0.047-11.542-1.322-17.257-3.83c-5.716-2.506-11.075-6.266-16.081-11.276l-25.004-25.025l64.42-64.362l25.004,25.025
		c5.006,5.01,8.752,10.383,11.239,16.113c2.487,5.732,3.759,11.486,3.815,17.26c0.057,5.775-1.081,11.43-3.41,16.969
		C427.15,264.013,423.671,269.094,419.043,273.717z M403.759,258.42c3.184-3.182,5.646-6.466,7.386-9.853
		c1.738-3.388,2.727-6.745,2.965-10.075c0.236-3.329-0.285-6.592-1.564-9.789c-1.281-3.197-3.35-6.227-6.205-9.085l-9.983-9.993
		l-41.429,41.393l9.983,9.992c2.856,2.858,5.883,4.93,9.079,6.213c3.195,1.283,6.459,1.809,9.788,1.573
		c3.329-0.233,6.688-1.22,10.077-2.956C397.244,264.102,400.546,261.629,403.759,258.42z"/>
</g>
</svg>
